<?xml version="1.0" encoding="UTF-8"?>
<svg width="318px" height="318px" viewBox="0 0 318 318" version="1.1" xmlns="http://www.w3.org/2000/svg" xmlns:xlink="http://www.w3.org/1999/xlink">
    <!-- Generator: Sketch 43.2 (39069) - http://www.bohemiancoding.com/sketch -->
    <title>Artboard</title>
    <desc>Created with Sketch.</desc>
    <defs></defs>
    <g id="Page-1" stroke="none" stroke-width="1" fill="none" fill-rule="evenodd">
        <g id="Artboard" fill-rule="nonzero" fill="#000000">
            <g id="Group" transform="translate(14.000000, 14.000000)">
                <path d="M291,291 L0,291 L0,0 L291,0 L291,291 Z M8.8209375,282.19725 L282.19725,282.19725 L282.19725,8.8209375 L8.8209375,8.8209375 L8.8209375,282.19725 Z" id="Shape"></path>
                <rect id="Rectangle-path" x="0" y="52.2890625" width="291" height="9.09375"></rect>
                <path d="M224.615625,47.5966875 C215.34,47.5966875 207.84675,40.08525 207.84675,30.8278125 C207.84675,21.5885625 215.34,14.0589375 224.615625,14.0589375 C233.854875,14.0589375 241.3845,21.5885625 241.3845,30.8278125 C241.366312,40.08525 233.836687,47.5966875 224.615625,47.5966875 Z M224.615625,23.1526875 C220.396125,23.1526875 216.9405,26.590125 216.9405,30.8278125 C216.9405,35.0655 220.35975,38.5029375 224.615625,38.5029375 C228.835125,38.5029375 232.29075,35.0655 232.29075,30.8278125 C232.272562,26.590125 228.835125,23.1526875 224.615625,23.1526875 Z" id="Shape"></path>
                <path d="M261.699937,47.5966875 C252.4425,47.5966875 244.931062,40.08525 244.931062,30.8278125 C244.931062,21.5885625 252.4425,14.0589375 261.699937,14.0589375 C270.957375,14.0589375 278.487,21.5885625 278.487,30.8278125 C278.487,40.08525 270.939187,47.5966875 261.699937,47.5966875 Z M261.699937,23.1526875 C257.498625,23.1526875 254.024812,26.590125 254.024812,30.8278125 C254.024812,35.0655 257.444062,38.5029375 261.699937,38.5029375 C265.955812,38.5029375 269.39325,35.0655 269.39325,30.8278125 C269.39325,26.590125 265.919437,23.1526875 261.699937,23.1526875 Z" id="Shape"></path>
                <path d="M187.494937,47.5966875 C178.2375,47.5966875 170.726062,40.08525 170.726062,30.8278125 C170.726062,21.5885625 178.2375,14.0589375 187.494937,14.0589375 C196.770562,14.0589375 204.263812,21.5885625 204.263812,30.8278125 C204.245625,40.08525 196.752375,47.5966875 187.494937,47.5966875 Z M187.494937,23.1526875 C183.275437,23.1526875 179.819812,26.590125 179.819812,30.8278125 C179.819812,35.0655 183.25725,38.5029375 187.494937,38.5029375 C191.732625,38.5029375 195.170062,35.0655 195.170062,30.8278125 C195.151875,26.590125 191.714437,23.1526875 187.494937,23.1526875 Z" id="Shape"></path>
                <path d="M247.440938,214.376062 L43.5590625,214.376062 C36.0294375,214.376062 29.9184375,208.265062 29.9184375,200.735437 L29.9184375,136.3335 C29.9184375,128.803875 36.0294375,122.692875 43.5590625,122.692875 L247.459125,122.692875 C254.98875,122.692875 261.09975,128.803875 261.09975,136.3335 L261.09975,200.735437 C261.081563,208.265062 254.98875,214.376062 247.440938,214.376062 Z M43.5590625,131.786625 C41.0491875,131.786625 39.0121875,133.823625 39.0121875,136.3335 L39.0121875,200.735437 C39.0121875,203.2635 41.0491875,205.282312 43.5590625,205.282312 L247.459125,205.282312 C250.005375,205.282312 252.006,203.2635 252.006,200.735437 L252.006,136.3335 C252.006,133.823625 250.005375,131.786625 247.459125,131.786625 L43.5590625,131.786625 Z" id="Shape"></path>
                <path d="M101.9955,164.014875 L87.045375,164.014875 L96.575625,152.447625 C98.1579375,150.51975 97.8669375,147.646125 95.9390625,146.063813 C94.029375,144.463312 91.15575,144.736125 89.55525,146.645813 L81.9346875,155.866875 L81.9346875,143.8995 C81.9346875,141.389625 79.8976875,139.370812 77.3878125,139.370812 C74.896125,139.370812 72.8409375,141.389625 72.8409375,143.8995 L72.8409375,155.866875 L65.220375,146.645813 C63.619875,144.736125 60.74625,144.463312 58.8001875,146.063812 C56.8905,147.646125 56.5995,150.51975 58.2,152.447625 L67.73025,164.014875 L52.7619375,164.014875 C50.233875,164.014875 48.2150625,166.033687 48.2150625,168.56175 C48.2150625,171.053437 50.233875,173.108625 52.7619375,173.108625 L67.7120625,173.108625 L58.2181875,184.603125 C56.5995,186.512812 56.8905,189.441 58.818375,191.023312 C60.7280625,192.623812 63.6380625,192.332812 65.2385625,190.441312 L72.8409375,181.22025 L72.8409375,193.15125 C72.8409375,195.661125 74.8779375,197.698125 77.3878125,197.698125 C79.8976875,197.698125 81.9346875,195.661125 81.9346875,193.15125 L81.9346875,181.202062 L89.55525,190.441312 C91.15575,192.332812 94.0475625,192.623812 95.95725,191.023312 C97.9033125,189.441 98.176125,186.531 96.575625,184.603125 L87.0635625,173.108625 L101.9955,173.108625 C104.54175,173.108625 106.542375,171.053437 106.542375,168.56175 C106.542375,166.033687 104.54175,164.014875 101.9955,164.014875 Z" id="Shape"></path>
                <path d="M170.125875,164.014875 L155.157563,164.014875 L164.706,152.447625 C166.3065,150.51975 165.997313,147.646125 164.069438,146.063813 C162.141563,144.463312 159.267938,144.736125 157.667438,146.645813 L150.065063,155.848687 L150.065063,143.8995 C150.065063,141.389625 148.028063,139.370812 145.518188,139.370812 C142.971938,139.370812 140.971313,141.389625 140.971313,143.8995 L140.971313,155.885062 L133.332563,146.645812 C131.732063,144.736125 128.84025,144.463312 126.912375,146.063812 C125.020875,147.646125 124.711688,150.51975 126.275813,152.447625 L135.82425,164.014875 L120.874125,164.014875 C118.346063,164.014875 116.32725,166.033687 116.32725,168.56175 C116.32725,171.053437 118.346063,173.108625 120.874125,173.108625 L135.806063,173.108625 L126.312188,184.603125 C124.711688,186.512812 125.002688,189.441 126.930563,191.023312 C128.84025,192.623812 131.75025,192.332812 133.35075,190.441312 L140.971313,181.202062 L140.971313,193.15125 C140.971313,195.661125 142.971938,197.698125 145.518188,197.698125 C148.028063,197.698125 150.065063,195.661125 150.065063,193.15125 L150.065063,181.238437 L157.667438,190.441312 C159.267938,192.332812 162.15975,192.623812 164.087625,191.023312 C166.0155,189.441 166.324688,186.531 164.724188,184.603125 L155.193938,173.108625 L170.107688,173.108625 C172.653938,173.108625 174.654563,171.053437 174.654563,168.56175 C174.67275,166.033687 172.653938,164.014875 170.125875,164.014875 Z" id="Shape"></path>
                <path d="M238.25625,164.014875 L223.26975,164.014875 L232.8,152.447625 C234.418687,150.51975 234.1095,147.646125 232.181625,146.063812 C230.271937,144.463312 227.361937,144.736125 225.761437,146.645812 L218.159062,155.848687 L218.159062,143.8995 C218.159062,141.389625 216.103875,139.370812 213.612187,139.370812 C211.065937,139.370812 209.065312,141.389625 209.065312,143.8995 L209.065312,155.866875 L201.44475,146.645813 C199.84425,144.736125 196.952437,144.463313 195.04275,146.063812 C193.114875,147.646125 192.842062,150.51975 194.406187,152.447625 L203.954625,164.014875 L189.0045,164.014875 C186.45825,164.014875 184.457625,166.033687 184.457625,168.56175 C184.457625,171.053437 186.45825,173.108625 189.0045,173.108625 L203.900062,173.108625 L194.406187,184.621312 C192.805687,186.531 193.096687,189.459187 195.04275,191.0415 C196.93425,192.642 199.84425,192.351 201.44475,190.4595 L209.065312,181.22025 L209.065312,193.169437 C209.065312,195.679312 211.065937,197.716312 213.612187,197.716312 C216.103875,197.716312 218.159062,195.679312 218.159062,193.169437 L218.159062,181.202062 L225.779625,190.441312 C227.380125,192.332812 230.271937,192.623812 232.181625,191.023312 C234.127687,189.441 234.418687,186.531 232.818187,184.603125 L223.324312,173.090437 L238.25625,173.090437 C240.784312,173.090437 242.803125,171.03525 242.803125,168.543562 C242.803125,166.033687 240.72975,164.014875 238.25625,164.014875 Z" id="Shape"></path>
            </g>
        </g>
    </g>
</svg>