<?xml version="1.0" encoding="UTF-8"?>
<svg width="318px" height="318px" viewBox="0 0 318 318" version="1.1" xmlns="http://www.w3.org/2000/svg" xmlns:xlink="http://www.w3.org/1999/xlink">
    <!-- Generator: Sketch 43.2 (39069) - http://www.bohemiancoding.com/sketch -->
    <title>Artboard</title>
    <desc>Created with Sketch.</desc>
    <defs></defs>
    <g id="Page-1" stroke="none" stroke-width="1" fill="none" fill-rule="evenodd">
        <g id="Artboard" fill-rule="nonzero" fill="#4990E2">
            <path d="M305,305 L14,305 L14,14 L305,14 L305,305 Z M22.8209375,296.19725 L296.19725,296.19725 L296.19725,22.8209375 L22.8209375,22.8209375 L22.8209375,296.19725 Z" id="Shape"></path>
            <rect id="Rectangle-path" x="14" y="66.2890625" width="291" height="9.09375"></rect>
            <path d="M238.615625,61.5966875 C229.34,61.5966875 221.84675,54.08525 221.84675,44.8278125 C221.84675,35.5885625 229.34,28.0589375 238.615625,28.0589375 C247.854875,28.0589375 255.3845,35.5885625 255.3845,44.8278125 C255.366312,54.08525 247.836687,61.5966875 238.615625,61.5966875 Z M238.615625,37.1526875 C234.396125,37.1526875 230.9405,40.590125 230.9405,44.8278125 C230.9405,49.0655 234.35975,52.5029375 238.615625,52.5029375 C242.835125,52.5029375 246.29075,49.0655 246.29075,44.8278125 C246.272562,40.590125 242.835125,37.1526875 238.615625,37.1526875 Z" id="Shape"></path>
            <path d="M275.699937,61.5966875 C266.4425,61.5966875 258.931062,54.08525 258.931062,44.8278125 C258.931062,35.5885625 266.4425,28.0589375 275.699937,28.0589375 C284.957375,28.0589375 292.487,35.5885625 292.487,44.8278125 C292.487,54.08525 284.939187,61.5966875 275.699937,61.5966875 Z M275.699937,37.1526875 C271.498625,37.1526875 268.024812,40.590125 268.024812,44.8278125 C268.024812,49.0655 271.444062,52.5029375 275.699937,52.5029375 C279.955812,52.5029375 283.39325,49.0655 283.39325,44.8278125 C283.39325,40.590125 279.919437,37.1526875 275.699937,37.1526875 Z" id="Shape"></path>
            <path d="M201.494937,61.5966875 C192.2375,61.5966875 184.726062,54.08525 184.726062,44.8278125 C184.726062,35.5885625 192.2375,28.0589375 201.494937,28.0589375 C210.770562,28.0589375 218.263812,35.5885625 218.263812,44.8278125 C218.245625,54.08525 210.752375,61.5966875 201.494937,61.5966875 Z M201.494937,37.1526875 C197.275437,37.1526875 193.819812,40.590125 193.819812,44.8278125 C193.819812,49.0655 197.25725,52.5029375 201.494937,52.5029375 C205.732625,52.5029375 209.170062,49.0655 209.170062,44.8278125 C209.151875,40.590125 205.714437,37.1526875 201.494937,37.1526875 Z" id="Shape"></path>
            <path d="M261.440938,228.376062 L57.5590625,228.376062 C50.0294375,228.376062 43.9184375,222.265062 43.9184375,214.735437 L43.9184375,150.3335 C43.9184375,142.803875 50.0294375,136.692875 57.5590625,136.692875 L261.459125,136.692875 C268.98875,136.692875 275.09975,142.803875 275.09975,150.3335 L275.09975,214.735437 C275.081563,222.265062 268.98875,228.376062 261.440938,228.376062 Z M57.5590625,145.786625 C55.0491875,145.786625 53.0121875,147.823625 53.0121875,150.3335 L53.0121875,214.735437 C53.0121875,217.2635 55.0491875,219.282312 57.5590625,219.282312 L261.459125,219.282312 C264.005375,219.282312 266.006,217.2635 266.006,214.735437 L266.006,150.3335 C266.006,147.823625 264.005375,145.786625 261.459125,145.786625 L57.5590625,145.786625 Z" id="Shape"></path>
            <path d="M115.9955,178.014875 L101.045375,178.014875 L110.575625,166.447625 C112.157937,164.51975 111.866937,161.646125 109.939062,160.063813 C108.029375,158.463312 105.15575,158.736125 103.55525,160.645813 L95.9346875,169.866875 L95.9346875,157.8995 C95.9346875,155.389625 93.8976875,153.370812 91.3878125,153.370812 C88.896125,153.370812 86.8409375,155.389625 86.8409375,157.8995 L86.8409375,169.866875 L79.220375,160.645813 C77.619875,158.736125 74.74625,158.463312 72.8001875,160.063812 C70.8905,161.646125 70.5995,164.51975 72.2,166.447625 L81.73025,178.014875 L66.7619375,178.014875 C64.233875,178.014875 62.2150625,180.033687 62.2150625,182.56175 C62.2150625,185.053437 64.233875,187.108625 66.7619375,187.108625 L81.7120625,187.108625 L72.2181875,198.603125 C70.5995,200.512812 70.8905,203.441 72.818375,205.023312 C74.7280625,206.623812 77.6380625,206.332812 79.2385625,204.441312 L86.8409375,195.22025 L86.8409375,207.15125 C86.8409375,209.661125 88.8779375,211.698125 91.3878125,211.698125 C93.8976875,211.698125 95.9346875,209.661125 95.9346875,207.15125 L95.9346875,195.202062 L103.55525,204.441312 C105.15575,206.332812 108.047562,206.623812 109.95725,205.023312 C111.903312,203.441 112.176125,200.531 110.575625,198.603125 L101.063562,187.108625 L115.9955,187.108625 C118.54175,187.108625 120.542375,185.053437 120.542375,182.56175 C120.542375,180.033687 118.54175,178.014875 115.9955,178.014875 Z" id="Shape"></path>
            <path d="M184.125875,178.014875 L169.157563,178.014875 L178.706,166.447625 C180.3065,164.51975 179.997313,161.646125 178.069438,160.063813 C176.141563,158.463312 173.267938,158.736125 171.667438,160.645813 L164.065063,169.848687 L164.065063,157.8995 C164.065063,155.389625 162.028063,153.370812 159.518188,153.370812 C156.971938,153.370812 154.971313,155.389625 154.971313,157.8995 L154.971313,169.885062 L147.332563,160.645812 C145.732063,158.736125 142.84025,158.463312 140.912375,160.063812 C139.020875,161.646125 138.711688,164.51975 140.275813,166.447625 L149.82425,178.014875 L134.874125,178.014875 C132.346063,178.014875 130.32725,180.033687 130.32725,182.56175 C130.32725,185.053437 132.346063,187.108625 134.874125,187.108625 L149.806063,187.108625 L140.312188,198.603125 C138.711688,200.512812 139.002688,203.441 140.930563,205.023312 C142.84025,206.623812 145.75025,206.332812 147.35075,204.441312 L154.971313,195.202062 L154.971313,207.15125 C154.971313,209.661125 156.971938,211.698125 159.518188,211.698125 C162.028063,211.698125 164.065063,209.661125 164.065063,207.15125 L164.065063,195.238437 L171.667438,204.441312 C173.267938,206.332812 176.15975,206.623812 178.087625,205.023312 C180.0155,203.441 180.324688,200.531 178.724188,198.603125 L169.193938,187.108625 L184.107688,187.108625 C186.653938,187.108625 188.654563,185.053437 188.654563,182.56175 C188.67275,180.033687 186.653938,178.014875 184.125875,178.014875 Z" id="Shape"></path>
            <path d="M252.25625,178.014875 L237.26975,178.014875 L246.8,166.447625 C248.418687,164.51975 248.1095,161.646125 246.181625,160.063812 C244.271937,158.463312 241.361937,158.736125 239.761437,160.645812 L232.159062,169.848687 L232.159062,157.8995 C232.159062,155.389625 230.103875,153.370812 227.612187,153.370812 C225.065937,153.370812 223.065312,155.389625 223.065312,157.8995 L223.065312,169.866875 L215.44475,160.645813 C213.84425,158.736125 210.952437,158.463313 209.04275,160.063812 C207.114875,161.646125 206.842062,164.51975 208.406187,166.447625 L217.954625,178.014875 L203.0045,178.014875 C200.45825,178.014875 198.457625,180.033687 198.457625,182.56175 C198.457625,185.053437 200.45825,187.108625 203.0045,187.108625 L217.900062,187.108625 L208.406187,198.621312 C206.805687,200.531 207.096687,203.459187 209.04275,205.0415 C210.93425,206.642 213.84425,206.351 215.44475,204.4595 L223.065312,195.22025 L223.065312,207.169437 C223.065312,209.679312 225.065937,211.716312 227.612187,211.716312 C230.103875,211.716312 232.159062,209.679312 232.159062,207.169437 L232.159062,195.202062 L239.779625,204.441312 C241.380125,206.332812 244.271937,206.623812 246.181625,205.023312 C248.127687,203.441 248.418687,200.531 246.818187,198.603125 L237.324312,187.090437 L252.25625,187.090437 C254.784312,187.090437 256.803125,185.03525 256.803125,182.543562 C256.803125,180.033687 254.72975,178.014875 252.25625,178.014875 Z" id="Shape"></path>
        </g>
    </g>
</svg>